Description

Poster: http://cdn.piczend.com/image/7pn3i2ifmzhd2cxxyjjgmnvjn.jpeg
Release date: 2012
Genre: Comedy, Crime
Plot: An art curator decides to seek revenge on his abusive boss by conning him into buying a fake Monet, but his plan requires the help of an eccentric and unpredictable Texas rodeo queen.
--------------------------------

Runtime: 1 h 29 min
Rating: 5.4/10
Votes: 1,072
Writer(s)/Director(s): Ethan Coen, Joel Coen/Michael Hoffman
Actors: Colin Firth, Cameron Diaz, Alan Rickman, Stanley Tucci
Trailer: http://www.imdb.com/video/imdb/vi1614521369/

Screenshots:
 
http://cdn.piczend.com/image/kuy75r7ca9e1ua1uahkl3umb3.jpeg
 
http://cdn.piczend.com/image/kvi36cerqbn8yf9yk0jbs3bpe.jpeg
 
http://cdn.piczend.com/image/njzqksa6rt3txkapn9nt9c4zl.jpeg
 
http://cdn.piczend.com/image/5if6xkk790isqe9kytx9tnnsq.jpeg


Mediainfo:
General
Complete name : 	Gambit (2012) DVDRip 272p [Zend]/Gambit (2012) DVDRip 272p [Zend].mp4
Format : 	MPEG-4
Format profile : 	Base Media
Codec ID : 	isom
File size : 	981 MiB
Duration : 	1h 25mn
Overall bit rate : 	1 604 Kbps
Writing application : 	Lavf53.21.1

Video
ID : 	1
Format : 	AVC
Format/Info : 	Advanced Video Codec
Format profile : 	Main@L2.1
Format settings, CABAC : 	Yes
Format settings, ReFrames : 	3 frames
Codec ID : 	avc1
Codec ID/Info : 	Advanced Video Coding
Duration : 	1h 25mn
Bit rate : 	1 500 Kbps
Width : 	640 pixels
Height : 	272 pixels
Display aspect ratio : 	2.35:1
Frame rate mode : 	Constant
Frame rate : 	25.000 fps
Color space : 	YUV
Chroma subsampling : 	4:2:0
Bit depth : 	8 bits
Scan type : 	Progressive
Bits/(Pixel*Frame) : 	0.345
Stream size : 	898 MiB (92%)
Writing library : 	x264 core 123 r2189 35cf912
Encoding settings : 	cabac=1 / ref=3 / deblock=1:0:0 / analyse=0x1:0x111 / me=hex / subme=7 / psy=1 / psy_rd=1.00:0.00 / mixed_ref=0 / me_range=16 / chroma_me=1 / trellis=1 / 8x8dct=0 / cqm=0 / deadzone=21,11 / fast_pskip=1 / chroma_qp_offset=-2 / threads=6 / sliced_threads=0 / nr=0 / decimate=1 / interlaced=0 / bluray_compat=0 / constrained_intra=0 / bframes=3 / b_pyramid=0 / b_adapt=1 / b_bias=0 / direct=1 / weightb=0 / open_gop=1 / weightp=2 / keyint=250 / keyint_min=25 / scenecut=40 / intra_refresh=0 / rc_lookahead=40 / rc=abr / mbtree=1 / bitrate=1500 / ratetol=1.0 / qcomp=0.60 / qpmin=0 / qpmax=69 / qpstep=4 / ip_ratio=1.25 / aq=1:1.00

Audio
ID : 	2
Format : 	MPEG Audio
Format version : 	Version 1
Format profile : 	Layer 3
Codec ID : 	6B
Duration : 	1h 25mn
Bit rate mode : 	Constant
Bit rate : 	128 Kbps
Channel(s) : 	2 channels
Sampling rate : 	44.1 KHz
Compression mode : 	Lossy
Delay relative to video : 	40ms
Stream size : 	78.3 MiB (8%)
Writing library : 	LAME3.99r
Encoding settings : 	-m s -V 4 -q 3 -lowpass 17 -b 128
